Coordinates
version=1
nRows=27
nColumns=38
inDegrees=no

Units are S.I. units (second, meters, Newtons, ...)
If the header above contains a line with 'inDegrees', this indicates whether rotational values are in degrees (yes) or radians (no).

endheader
time	pelvis_tilt	pelvis_list	pelvis_rotation	pelvis_tx	pelvis_ty	pelvis_tz	hip_flexion_r	hip_adduction_r	hip_rotation_r	knee_angle_r	ankle_angle_r	subtalar_angle_r	mtp_angle_r	hip_flexion_l	hip_adduction_l	hip_rotation_l	knee_angle_l	ankle_angle_l	subtalar_angle_l	mtp_angle_l	lumbar_extension	lumbar_bending	lumbar_rotation	arm_flex_r	arm_add_r	arm_rot_r	elbow_flex_r	pro_sup_r	wrist_flex_r	wrist_dev_r	arm_flex_l	arm_add_l	arm_rot_l	elbow_flex_l	pro_sup_l	wrist_flex_l	wrist_dev_l
0.57125	0.00573087	0.0210424	-0.0611871	0.122575	0.985794	0.0114269	0.120453	-0.073507	-0.105037	0.67688	0.382575	0.152632	0.0319039	0.348032	-0.115132	-0.149904	1.28618	0.113185	-0.102428	0.0189662	-0.320374	-0.0876584	0.198925	-0.0580802	-0.438245	-0.171944	1.76627	1.17893	0.00142423	0.0864127	-0.415888	-0.134382	-0.0284905	1.8051	1.17161	0.0292305	0.0915898
0.572249	0.00518623	0.0215359	-0.0612445	0.122563	0.986411	0.011447	0.117216	-0.0737364	-0.104894	0.673224	0.379211	0.152677	0.0350221	0.349829	-0.114262	-0.149974	1.28165	0.114016	-0.101917	0.018915	-0.319569	-0.0887859	0.199929	-0.0560783	-0.437727	-0.170939	1.76792	1.1788	0.00144672	0.086392	-0.418174	-0.134319	-0.0298913	1.80555	1.1717	0.0292012	0.0915711
0.573247	0.00464046	0.0220359	-0.0612926	0.122556	0.987037	0.0114652	0.113969	-0.0739702	-0.10476	0.669531	0.375769	0.152704	0.0381713	0.35159	-0.113375	-0.150049	1.27703	0.114822	-0.1014	0.0188651	-0.318758	-0.089917	0.200914	-0.0541035	-0.437194	-0.169931	1.76958	1.17868	0.00146921	0.0863712	-0.420453	-0.13426	-0.0312905	1.806	1.17179	0.0291718	0.0915524
0.574246	0.00409394	0.0225422	-0.0613313	0.122552	0.987672	0.0114817	0.110713	-0.0742084	-0.104633	0.665802	0.372251	0.152713	0.0413503	0.353312	-0.112472	-0.150129	1.27232	0.115603	-0.100875	0.0188164	-0.317941	-0.0910517	0.201881	-0.052156	-0.436646	-0.168919	1.77124	1.17857	0.00149171	0.0863505	-0.422726	-0.134205	-0.0326875	1.80647	1.17189	0.0291424	0.0915337
0.575245	0.00354704	0.0230546	-0.0613605	0.122552	0.988315	0.0114963	0.107448	-0.0744509	-0.104515	0.662039	0.368658	0.152704	0.0445582	0.354996	-0.111552	-0.150212	1.26752	0.116359	-0.100342	0.0187689	-0.31712	-0.0921896	0.202829	-0.0502362	-0.436084	-0.167904	1.77292	1.17845	0.0015142	0.0863297	-0.424993	-0.134154	-0.0340822	1.80694	1.17199	0.0291131	0.0915149
0.576243	0.00300015	0.023573	-0.0613799	0.122555	0.988967	0.011509	0.104174	-0.0746978	-0.104406	0.658243	0.36499	0.152677	0.0477937	0.356642	-0.110615	-0.150301	1.26262	0.117089	-0.0998028	0.0187227	-0.316293	-0.0933306	0.20376	-0.0483444	-0.435509	-0.166885	1.77461	1.17833	0.0015367	0.086309	-0.427253	-0.134106	-0.0354742	1.80742	1.17209	0.0290837	0.0914962
0.577242	0.00245366	0.0240973	-0.0613895	0.122562	0.989627	0.0115198	0.100891	-0.074949	-0.104306	0.654414	0.361248	0.152632	0.0510559	0.358248	-0.109663	-0.150393	1.25763	0.117793	-0.0992558	0.0186778	-0.315462	-0.0944744	0.204672	-0.0464807	-0.43492	-0.165864	1.77631	1.17822	0.0015592	0.0862882	-0.429505	-0.134063	-0.0368632	1.80791	1.1722	0.0290544	0.0914775
0.578241	0.00190793	0.0246273	-0.0613892	0.122573	0.990296	0.0115287	0.0975998	-0.0752046	-0.104215	0.650555	0.357432	0.15257	0.0543434	0.359814	-0.108695	-0.15049	1.25255	0.118471	-0.0987015	0.0186341	-0.314627	-0.095621	0.205567	-0.0446454	-0.434318	-0.164841	1.77802	1.17811	0.00158169	0.0862675	-0.43175	-0.134023	-0.0382491	1.8084	1.17232	0.029025	0.0914587
0.579239	0.00136334	0.0251629	-0.0613788	0.122587	0.990973	0.0115357	0.0942996	-0.0754645	-0.104134	0.646665	0.353544	0.15249	0.0576552	0.361341	-0.107711	-0.150591	1.24738	0.119123	-0.0981398	0.0185917	-0.313789	-0.09677	0.206443	-0.0428388	-0.433703	-0.163815	1.77974	1.178	0.00160419	0.0862468	-0.433987	-0.133987	-0.0396314	1.80891	1.17244	0.0289956	0.09144
0.580238	0.000820277	0.0257041	-0.0613584	0.122605	0.991658	0.0115407	0.090991	-0.0757288	-0.104063	0.642748	0.349585	0.152392	0.06099	0.362826	-0.106712	-0.150696	1.24213	0.119748	-0.0975707	0.0185506	-0.312947	-0.0979214	0.207302	-0.0410609	-0.433075	-0.162787	1.78146	1.17789	0.00162669	0.086226	-0.436215	-0.133954	-0.04101	1.80942	1.17256	0.0289663	0.0914213
0.581237	0.000279088	0.0262506	-0.0613278	0.122627	0.99235	0.0115438	0.0876742	-0.0759975	-0.104002	0.638802	0.345556	0.152277	0.0643465	0.364271	-0.105698	-0.150805	1.23678	0.120347	-0.096994	0.0185107	-0.312104	-0.0990749	0.208143	-0.0393121	-0.432435	-0.161758	1.7832	1.17778	0.00164919	0.0862052	-0.438435	-0.133925	-0.0423847	1.80993	1.17269	0.0289369	0.0914025
0.582236	-0.000259864	0.0268023	-0.0612869	0.122653	0.993051	0.0115448	0.0843493	-0.0762705	-0.103952	0.634831	0.341457	0.152144	0.0677234	0.365674	-0.104668	-0.150919	1.23135	0.120919	-0.0964098	0.0184722	-0.311258	-0.10023	0.208966	-0.0375923	-0.431784	-0.160727	1.78495	1.17768	0.00167169	0.0861845	-0.440646	-0.133899	-0.0437551	1.81045	1.17282	0.0289076	0.0913838
0.583234	-0.000796232	0.0273592	-0.0612358	0.122682	0.993759	0.0115439	0.0810167	-0.0765479	-0.103912	0.630836	0.337289	0.151994	0.0711194	0.367036	-0.103624	-0.151037	1.22583	0.121465	-0.095818	0.0184351	-0.310411	-0.101388	0.209772	-0.0359018	-0.43112	-0.159694	1.7867	1.17757	0.00169419	0.0861637	-0.442848	-0.133877	-0.0451211	1.81098	1.17296	0.0288782	0.0913651
0.584233	-0.00132967	0.0279211	-0.0611744	0.122715	0.994474	0.0115409	0.0776766	-0.0768298	-0.103883	0.626816	0.333054	0.151827	0.074533	0.368355	-0.102565	-0.151159	1.22022	0.121983	-0.0952185	0.0183992	-0.309563	-0.102547	0.21056	-0.0342407	-0.430446	-0.15866	1.78847	1.17747	0.00171669	0.086143	-0.44504	-0.133858	-0.0464825	1.81151	1.1731	0.0288488	0.0913463
0.585232	-0.00185986	0.0284879	-0.0611026	0.122752	0.995196	0.0115359	0.0743291	-0.0771161	-0.103865	0.622775	0.328753	0.151642	0.0779628	0.369632	-0.101492	-0.151286	1.21453	0.122473	-0.0946112	0.0183647	-0.308714	-0.103707	0.211332	-0.0326091	-0.42976	-0.157625	1.79025	1.17738	0.00173919	0.0861222	-0.447223	-0.133843	-0.0478391	1.81205	1.17324	0.0288195	0.0913276
0.58623	-0.00238646	0.0290594	-0.0610205	0.122792	0.995925	0.0115289	0.0709746	-0.0774068	-0.103859	0.618712	0.324387	0.151441	0.0814075	0.370867	-0.100405	-0.151416	1.20876	0.122936	-0.093996	0.0183316	-0.307865	-0.104868	0.212085	-0.031007	-0.429064	-0.156589	1.79203	1.17728	0.00176169	0.0861015	-0.449395	-0.133831	-0.0491906	1.81259	1.17339	0.0287901	0.0913089
0.587229	-0.00290918	0.0296357	-0.0609281	0.122836	0.996662	0.0115198	0.0676134	-0.077702	-0.103865	0.614631	0.319956	0.151223	0.0848655	0.372058	-0.0993041	-0.151552	1.2029	0.123372	-0.0933728	0.0183	-0.307016	-0.106031	0.212822	-0.0294345	-0.428358	-0.155552	1.79383	1.17719	0.00178419	0.0860807	-0.451557	-0.133822	-0.050537	1.81314	1.17355	0.0287608	0.0912901
0.588228	-0.0034277	0.0302164	-0.0608253	0.122883	0.997405	0.0115086	0.0642457	-0.0780017	-0.103882	0.61053	0.315463	0.150989	0.0883353	0.373206	-0.0981893	-0.151691	1.19696	0.123779	-0.0927416	0.0182697	-0.306168	-0.107195	0.213542	-0.0278917	-0.427642	-0.154514	1.79563	1.1771	0.0018067	0.0860599	-0.453709	-0.133816	-0.0518779	1.81369	1.17371	0.0287314	0.0912714
0.589226	-0.00394174	0.0308016	-0.0607123	0.122934	0.998154	0.0114954	0.0608719	-0.078306	-0.103912	0.606414	0.310908	0.150738	0.0918154	0.37431	-0.0970612	-0.151835	1.19094	0.124159	-0.0921023	0.018241	-0.30532	-0.10836	0.214245	-0.0263786	-0.426917	-0.153476	1.79745	1.17701	0.0018292	0.0860392	-0.455849	-0.133813	-0.0532134	1.81424	1.17387	0.0287021	0.0912526
0.590225	-0.00445101	0.0313911	-0.0605891	0.122989	0.99891	0.01148	0.0574922	-0.0786147	-0.103954	0.602281	0.306293	0.150471	0.0953042	0.375371	-0.0959198	-0.151984	1.18484	0.12451	-0.0914546	0.0182137	-0.304474	-0.109525	0.21493	-0.0248952	-0.426182	-0.152437	1.79927	1.17692	0.00185171	0.0860184	-0.457979	-0.133813	-0.0545431	1.81479	1.17404	0.0286727	0.0912339
0.591224	-0.00495525	0.0319849	-0.0604557	0.123048	0.999672	0.0114626	0.0541072	-0.0789281	-0.104008	0.598135	0.301619	0.150188	0.0988001	0.376388	-0.0947656	-0.152137	1.17867	0.124833	-0.0907985	0.018188	-0.30363	-0.110691	0.2156	-0.0234415	-0.425438	-0.151398	1.8011	1.17684	0.00187421	0.0859976	-0.460097	-0.133816	-0.055867	1.81535	1.17421	0.0286434	0.0912151
0.592222	-0.00545419	0.0325826	-0.0603122	0.12311	1.00044	0.0114431	0.050717	-0.079246	-0.104075	0.593975	0.296887	0.149889	0.102302	0.377361	-0.0935986	-0.152295	1.17241	0.125127	-0.0901338	0.0181638	-0.302787	-0.111857	0.216252	-0.0220175	-0.424686	-0.150358	1.80294	1.17675	0.00189672	0.0859769	-0.462204	-0.133821	-0.057185	1.81591	1.17438	0.028614	0.0911964
0.593221	-0.00594758	0.0331844	-0.0601586	0.123175	1.00121	0.0114214	0.0473222	-0.0795685	-0.104156	0.589804	0.292098	0.149575	0.105807	0.378289	-0.0924193	-0.152458	1.16608	0.125392	-0.0894605	0.0181413	-0.301948	-0.113023	0.216889	-0.0206231	-0.423926	-0.149319	1.80479	1.17667	0.00191922	0.0859561	-0.464299	-0.13383	-0.0584968	1.81648	1.17456	0.0285847	0.0911777
0.59422	-0.00643518	0.03379	-0.0599951	0.123244	1.00199	0.0113977	0.043923	-0.0798956	-0.104249	0.585624	0.287254	0.149246	0.109314	0.379173	-0.0912278	-0.152625	1.15967	0.125629	-0.0887783	0.0181204	-0.30111	-0.11419	0.217508	-0.0192584	-0.423159	-0.148279	1.80665	1.1766	0.00194173	0.0859353	-0.466382	-0.13384	-0.0598025	1.81704	1.17475	0.0285553	0.0911589
0.595218	-0.00691676	0.0343993	-0.0598218	0.123317	1.00278	0.0113718	0.04052	-0.0802274	-0.104355	0.581435	0.282357	0.148901	0.112822	0.380013	-0.0900245	-0.152798	1.15318	0.125836	-0.0880871	0.0181012	-0.300276	-0.115356	0.218112	-0.0179232	-0.422383	-0.147238	1.80852	1.17652	0.00196424	0.0859145	-0.468454	-0.133854	-0.0611018	1.81761	1.17494	0.028526	0.0911402
0.596217	-0.0073921	0.0350123	-0.0596388	0.123393	1.00357	0.0113439	0.0371135	-0.0805639	-0.104475	0.577238	0.277407	0.148542	0.116329	0.380808	-0.0888095	-0.152975	1.14663	0.126014	-0.0873867	0.0180838	-0.299446	-0.116523	0.2187	-0.0166174	-0.421601	-0.146198	1.8104	1.17645	0.00198674	0.0858938	-0.470512	-0.13387	-0.0623946	1.81818	1.17513	0.0284966	0.0911214
0.597216	-0.00786098	0.0356287	-0.0594461	0.123473	1.00436	0.0113138	0.033704	-0.080905	-0.104609	0.573036	0.272407	0.148168	0.119832	0.381559	-0.0875833	-0.153158	1.14	0.126163	-0.086677	0.0180681	-0.298619	-0.117689	0.219271	-0.015341	-0.420812	-0.145157	1.81228	1.17638	0.00200925	0.085873	-0.472559	-0.133888	-0.063681	1.81875	1.17532	0.0284673	0.0911027
